        <svg width="88" height="32" viewBox="0 0 88 32" fill="none" xmlns="http://www.w3.org/2000/svg">
        <path fill-rule="evenodd" clip-rule="evenodd" d="M35.3061 27.9088V29.5647V31.2207H34.5925V30.8186C34.3661 31.1168 34.0227 31.304 33.5559 31.304C32.6355 31.304 31.9141 30.5767 31.9141 29.5647C31.9141 28.5535 32.6355 27.8255 33.5559 27.8255C34.0227 27.8255 34.3661 28.0127 34.5925 28.3109V27.9088H35.3061ZM33.6442 28.5043C33.0265 28.5043 32.6484 28.9825 32.6484 29.5647C32.6484 30.1468 33.0265 30.625 33.6442 30.625C34.2344 30.625 34.6329 30.1674 34.6329 29.5647C34.6329 28.9619 34.2344 28.5043 33.6442 28.5043ZM59.4219 29.5647C59.4219 28.9825 59.7999 28.5043 60.4176 28.5043C61.0087 28.5043 61.4063 28.9619 61.4063 29.5647C61.4063 30.1674 61.0087 30.625 60.4176 30.625C59.7999 30.625 59.4219 30.1468 59.4219 29.5647ZM62.0803 26.5788V29.5647V31.2207H61.3659V30.8186C61.1396 31.1168 60.7961 31.304 60.3293 31.304C59.409 31.304 58.6875 30.5767 58.6875 29.5647C58.6875 28.5535 59.409 27.8255 60.3293 27.8255C60.7961 27.8255 61.1396 28.0127 61.3659 28.3109V26.5788H62.0803ZM44.1693 28.4703C44.629 28.4703 44.9245 28.7614 45 29.2737H43.2969C43.3731 28.7955 43.6608 28.4703 44.1693 28.4703ZM42.5469 29.5647C42.5469 28.5321 43.2196 27.8255 44.1816 27.8255C45.1011 27.8255 45.733 28.5321 45.7401 29.5647C45.7401 29.6615 45.733 29.7519 45.7259 29.8415H43.2888C43.3917 30.4379 43.8106 30.6528 44.2704 30.6528C44.5997 30.6528 44.9502 30.5275 45.2253 30.3063L45.575 30.84C45.1766 31.1794 44.7239 31.304 44.2295 31.304C43.2471 31.304 42.5469 30.6179 42.5469 29.5647ZM52.7969 29.5647C52.7969 28.9825 53.1749 28.5043 53.7926 28.5043C54.3829 28.5043 54.7813 28.9619 54.7813 29.5647C54.7813 30.1674 54.3829 30.625 53.7926 30.625C53.1749 30.625 52.7969 30.1468 52.7969 29.5647ZM55.4546 27.9088V29.5647V31.2207H54.7409V30.8186C54.5138 31.1168 54.1711 31.304 53.7043 31.304C52.784 31.304 52.0625 30.5767 52.0625 29.5647C52.0625 28.5535 52.784 27.8255 53.7043 27.8255C54.1711 27.8255 54.5138 28.0127 54.7409 28.3109V27.9088H55.4546ZM48.7656 29.5647C48.7656 30.5696 49.4588 31.304 50.5167 31.304C51.011 31.304 51.3403 31.1929 51.6971 30.909L51.3545 30.3269C51.0865 30.5212 50.8051 30.6251 50.4954 30.6251C49.9256 30.6179 49.5068 30.2024 49.5068 29.5647C49.5068 28.9271 49.9256 28.5115 50.4954 28.5044C50.8051 28.5044 51.0865 28.6083 51.3545 28.8026L51.6971 28.2205C51.3403 27.9365 51.011 27.8255 50.5167 27.8255C49.4588 27.8255 48.7656 28.5599 48.7656 29.5647ZM57.1058 28.3109C57.2912 28.0198 57.5592 27.8255 57.9711 27.8255C58.1157 27.8255 58.3216 27.8533 58.4796 27.9159L58.2595 28.5948C58.1086 28.5322 57.9577 28.5115 57.8131 28.5115C57.3463 28.5115 57.1128 28.8161 57.1128 29.3641V31.2207H56.3984V27.9088H57.1058V28.3109ZM38.8356 28.1721C38.4922 27.9437 38.019 27.8255 37.4972 27.8255C36.6657 27.8255 36.1305 28.2276 36.1305 28.8858C36.1305 29.4259 36.5289 29.759 37.263 29.8629L37.6001 29.9113C37.9915 29.9668 38.1762 30.0707 38.1762 30.2579C38.1762 30.514 37.9153 30.66 37.428 30.66C36.9337 30.66 36.5769 30.5006 36.3364 30.3134L36 30.8741C36.3914 31.1652 36.8857 31.304 37.4209 31.304C38.3688 31.304 38.9181 30.8535 38.9181 30.223C38.9181 29.6409 38.4859 29.3363 37.7715 29.2324L37.4351 29.1833C37.1262 29.142 36.8787 29.0802 36.8787 28.8581C36.8787 28.6154 37.1121 28.4703 37.5035 28.4703C37.9224 28.4703 38.3279 28.6297 38.5267 28.7542L38.8356 28.1721ZM47.1839 28.3109C47.3686 28.0198 47.6366 27.8255 48.0484 27.8255C48.193 27.8255 48.3989 27.8533 48.5569 27.9159L48.3368 28.5948C48.1859 28.5322 48.0351 28.5115 47.8904 28.5115C47.4236 28.5115 47.1902 28.8161 47.1902 29.3641V31.2207H46.4766V27.9088H47.1839V28.3109ZM41.9527 27.9088H40.7856V26.9039H40.0641V27.9088H39.3984V28.567H40.0641V30.0779C40.0641 30.8463 40.3596 31.304 41.2037 31.304C41.5134 31.304 41.8702 31.2072 42.0965 31.0478L41.8906 30.4308C41.6776 30.5553 41.4442 30.6179 41.2587 30.6179C40.9019 30.6179 40.7856 30.3959 40.7856 30.0636V28.567H41.9527V27.9088ZM31.2833 29.142V31.2207H30.5618V29.3776C30.5618 28.8161 30.3284 28.5044 29.8411 28.5044C29.3672 28.5044 29.0379 28.8097 29.0379 29.3847V31.2207H28.3164V29.3776C28.3164 28.8161 28.0767 28.5044 27.6028 28.5044C27.1148 28.5044 26.7988 28.8097 26.7988 29.3847V31.2207H26.0781V27.9088H26.7925V28.3172C27.0605 27.9294 27.4032 27.8255 27.7537 27.8255C28.2551 27.8255 28.6119 28.0476 28.8383 28.4148C29.1409 27.95 29.5731 27.8184 29.992 27.8255C30.789 27.8327 31.2833 28.3593 31.2833 29.142Z" fill="#231F20" />
        <path d="M49.4096 22.2812H38.5938V2.66675H49.4096V22.2812Z" fill="#FF5F00" />
        <path d="M39.2784 12.4743C39.2784 8.49546 41.1245 4.95118 43.9994 2.6671C41.8971 0.99687 39.2438 -3.24249e-05 36.3602 -3.24249e-05C29.5337 -3.24249e-05 24 5.58485 24 12.4743C24 19.3638 29.5337 24.9487 36.3602 24.9487C39.2438 24.9487 41.8971 23.9518 43.9994 22.2816C41.1245 19.9975 39.2784 16.4532 39.2784 12.4743Z" fill="#EC0000" />
        <path d="M64.0002 12.4743C64.0002 19.3638 58.4665 24.9487 51.64 24.9487C48.7564 24.9487 46.1031 23.9518 44 22.2816C46.8757 19.9975 48.7218 16.4532 48.7218 12.4743C48.7218 8.49546 46.8757 4.95118 44 2.6671C46.1031 0.99687 48.7564 -3.24249e-05 51.64 -3.24249e-05C58.4665 -3.24249e-05 64.0002 5.58485 64.0002 12.4743Z" fill="#F79E1B" />
        </svg>