        <svg width="88" height="32" viewBox="0 0 88 32" fill="none" xmlns="http://www.w3.org/2000/svg">
            <g clip-path="url(#clip0_473_3827)">
                <path fill-rule="evenodd" clip-rule="evenodd" d="M50.815 0C51.0994 0.0653161 51.3838 0.16329 51.6682 0.206834C52.8478 0.402783 53.7958 1.05594 54.6068 1.91594C54.8069 2.12277 55.007 2.53644 54.9228 2.75416C54.828 2.99366 54.4488 3.22226 54.1644 3.26581C51.5102 3.66859 48.9297 4.38707 46.4545 5.44301C45.0221 6.05263 43.6213 6.79288 42.252 7.54401C39.2713 9.19869 36.8488 11.5827 34.479 14.0321C31.9722 16.623 29.634 19.3662 27.5906 22.3599C26.3162 24.2214 25.126 26.1482 23.9885 28.1077C23.4197 29.0874 23.0511 30.1869 22.5877 31.232C22.5139 31.3844 22.3559 31.6565 22.3033 31.6348C22.1032 31.5695 21.8082 31.4497 21.7556 31.2864C21.6292 30.8836 21.5028 30.4155 21.5765 30.0128C21.9768 27.8247 22.8615 25.8108 23.841 23.8404C25.7474 20.0303 28.1383 16.5576 30.9295 13.4007C32.5199 11.6045 34.163 9.85185 35.8587 8.1754C38.4076 5.63896 41.2514 3.49441 44.4218 1.83974C45.8858 1.07772 47.4025 0.500757 49.014 0.185062C49.2878 0.130632 49.5511 0.0653161 49.8145 0.010886C50.162 0 50.4885 0 50.815 0Z" fill="#F78223" />
                <path fill-rule="evenodd" clip-rule="evenodd" d="M0 24.3195C0.147457 23.5031 0.263315 22.7519 0.410772 22.0008C1.16912 17.875 1.938 13.7601 2.69635 9.63428C2.74901 9.37302 2.82274 9.19884 3.07552 9.1553C5.04512 8.85049 7.02525 8.63277 8.99485 9.14441C10.7117 9.57985 11.9124 10.8317 12.1125 12.3014C12.5233 15.2297 10.8697 17.5702 8.41556 18.4084C7.12005 18.8439 5.80347 18.9527 4.46583 18.8221C4.14985 18.7894 4.05506 18.8765 4.00239 19.1922C3.71801 20.7925 3.4231 22.3818 3.11765 23.9712C3.09659 24.1018 2.98073 24.3086 2.907 24.3086C1.94853 24.3304 1.01113 24.3195 0 24.3195ZM4.53382 16.2314C5.17631 16.2314 5.75561 16.2858 6.31384 16.2205C7.40923 16.1007 8.28343 15.5891 8.77847 14.5114C9.3367 13.2921 8.93646 11.9967 7.88319 11.6157C7.13538 11.3435 6.3665 11.398 5.59762 11.5068C5.50283 11.5177 5.37643 11.6701 5.35537 11.7681C5.09205 13.1942 4.82874 14.6311 4.53382 16.2314Z" fill="#616161" />
                <path fill-rule="evenodd" clip-rule="evenodd" d="M18.6743 22.2294C18.1477 22.7955 17.7264 23.3725 17.1892 23.797C16.0833 24.6788 14.8194 24.8748 13.545 24.2651C12.281 23.6664 11.7649 22.5016 11.7123 21.13C11.5964 18.2452 12.5759 15.8611 14.9247 14.2064C16.3993 13.1614 18.095 12.8457 19.854 12.9437C20.7493 12.9981 21.634 13.2158 22.5293 13.3465C22.8874 13.4009 22.94 13.6077 22.8768 13.9234C22.4766 16.0788 22.0553 18.2234 21.7183 20.3788C21.5392 21.5219 21.4865 22.6975 21.4128 23.8515C21.3917 24.1998 21.3075 24.3413 20.9599 24.3305C20.3069 24.3087 19.6539 24.3087 19.0008 24.3305C18.6638 24.3413 18.5479 24.2107 18.5795 23.8732C18.6217 23.3507 18.6427 22.8064 18.6743 22.2294ZM19.4106 15.5018C18.3889 15.2079 17.5358 15.4148 16.8196 16.0353C15.4714 17.211 14.8605 18.735 14.9764 20.553C15.008 21.1081 15.2186 21.6416 15.7874 21.8811C16.3562 22.1205 16.8723 21.9464 17.3146 21.5545C17.5779 21.315 17.8307 21.0428 18.0203 20.738C19.0209 19.1596 19.042 17.3089 19.4106 15.5018Z" fill="#616161" />
                <path fill-rule="evenodd" clip-rule="evenodd" d="M39.2934 24.5807C36.5023 24.5807 34.9118 23.5139 34.3325 21.5979C33.3741 18.441 35.2173 13.5096 39.7252 12.9871C41.0734 12.8347 42.3373 13.0089 43.4433 13.858C44.4965 14.6635 45.0126 15.7957 45.0863 17.1347C45.1706 18.5281 44.9389 19.8562 44.3069 21.0972C43.1167 23.405 41.2103 24.5263 39.2934 24.5807ZM37.3346 19.8344C37.3346 19.9977 37.324 20.1719 37.3346 20.3352C37.4188 21.4782 38.2088 22.2076 39.2515 22.1096C39.8308 22.0552 40.2837 21.7395 40.6418 21.2823C41.5792 20.0521 41.9373 18.637 41.8109 17.102C41.7056 15.8501 40.7893 15.1861 39.6728 15.4474C39.1251 15.578 38.7144 15.9263 38.3878 16.3836C37.6611 17.4177 37.3662 18.5825 37.3346 19.8344Z" fill="#616161" />
                <path fill-rule="evenodd" clip-rule="evenodd" d="M47.6028 13.216C48.498 13.216 49.3512 13.216 50.278 13.216C50.2359 13.8038 50.1938 14.3699 50.1411 14.9468C50.4466 14.6529 50.7204 14.3699 51.0048 14.1195C52.0475 13.1833 53.2377 12.7696 54.6175 12.9982C55.755 13.1942 56.5449 14.0542 56.6713 15.2625C56.8188 16.6124 56.5449 17.9187 56.3027 19.225C56.0078 20.8035 55.7234 22.382 55.418 23.9496C55.3864 24.0911 55.2284 24.2979 55.123 24.3088C54.2172 24.3306 53.3114 24.3197 52.4056 24.3088C52.3635 24.3088 52.3214 24.2762 52.2371 24.2326C52.4056 23.3291 52.5742 22.4146 52.7321 21.5002C52.9744 20.0959 53.2061 18.7025 53.4168 17.2982C53.4589 17.0587 53.4378 16.8083 53.4062 16.5689C53.322 15.7306 52.7216 15.3496 51.9422 15.6C51.1838 15.8504 50.7309 16.46 50.3623 17.1349C49.8146 18.1256 49.625 19.225 49.4354 20.3245C49.2248 21.5329 49.0247 22.7303 48.7929 23.9387C48.7613 24.0802 48.6034 24.2979 48.498 24.3088C47.5712 24.3415 46.6338 24.3306 45.6016 24.3306C46.2967 20.5858 46.9497 16.9172 47.6028 13.216Z" fill="#616161" />
                <path fill-rule="evenodd" clip-rule="evenodd" d="M60.9929 19.9654C60.9191 21.0975 61.667 21.9031 62.7834 22.0446C63.8683 22.1752 64.911 22.001 65.9221 21.5983C66.0275 21.5547 66.1433 21.5112 66.2592 21.4676C66.2802 21.4567 66.3118 21.4676 66.3961 21.4676C66.4593 22.1317 66.533 22.7957 66.5646 23.4598C66.5752 23.5904 66.4277 23.7972 66.3013 23.8517C64.5424 24.5919 62.7202 24.8532 60.8665 24.3633C59.1391 23.9061 58.1912 22.6216 58.0016 20.8254C57.7278 18.2889 58.444 16.0682 60.3504 14.3917C61.9197 13.0092 63.7629 12.5738 65.7641 13.1943C67.1018 13.6079 67.8496 14.6421 67.9444 16.0682C68.0392 17.4725 67.4494 18.5502 66.1854 19.2033C65.1954 19.715 64.1316 19.9 63.0467 19.9654C62.3726 19.998 61.688 19.9654 60.9929 19.9654ZM61.2974 17.6031C62.1084 17.7773 63.7726 17.5704 64.4151 17.2221C64.8574 16.9826 65.0786 16.6016 65.0049 16.1444C64.9312 15.6763 64.6257 15.4476 64.2044 15.3388C62.951 15.0231 61.4659 16.1552 61.2974 17.6031Z" fill="#616161" />
                <path fill-rule="evenodd" clip-rule="evenodd" d="M71.5126 20.0085C71.4178 21.0753 72.1551 21.8918 73.2821 22.0442C74.3354 22.1748 75.3465 22.0115 76.3365 21.6414C76.5051 21.5761 76.6631 21.5108 76.8842 21.4237C76.9474 22.1313 77.0317 22.7953 77.0633 23.4594C77.0738 23.59 76.9264 23.7968 76.8105 23.8513C75.02 24.6133 73.1768 24.8745 71.2914 24.3411C69.5957 23.8621 68.7109 22.5885 68.5003 20.8467C68.237 18.6151 68.7952 16.6012 70.3014 14.9465C71.9234 13.1721 73.914 12.5407 76.2102 13.1938C77.611 13.5966 78.3588 14.6417 78.4431 16.1113C78.5273 17.5483 77.8954 18.626 76.5788 19.2574C75.2517 19.8887 73.8403 19.9867 72.4079 20.0194C72.1235 20.0085 71.8286 20.0085 71.5126 20.0085ZM71.8205 17.6898C72.4946 17.6463 73.1265 17.6354 73.748 17.5483C74.1693 17.4938 74.5906 17.3632 74.9697 17.1782C75.3805 16.9931 75.5806 16.6012 75.5174 16.1222C75.4542 15.665 75.1593 15.4473 74.7486 15.3384C73.5057 14.9901 71.9574 16.1658 71.8205 17.6898Z" fill="#616161" />
                <path fill-rule="evenodd" clip-rule="evenodd" d="M78.625 24.3194C78.7619 23.5138 78.8883 22.7845 79.0252 22.0442C79.5729 19.2247 80.1312 16.4052 80.3629 13.5205C80.3734 13.4007 80.5314 13.2048 80.6157 13.1939C81.4161 13.1721 82.2166 13.183 83.0803 13.183C83.0171 13.9559 82.9644 14.6853 82.9118 15.4037C83.8808 13.9341 84.9972 12.7367 86.9984 12.9544C86.7983 13.9886 86.6298 14.9465 86.4297 15.8936C86.4086 15.9698 86.2717 16.0678 86.1874 16.0787C84.1125 16.3617 83.2383 17.1237 82.7222 19.3227C82.3641 20.8467 82.1218 22.4143 81.8164 23.9601C81.7953 24.0908 81.6795 24.2976 81.6057 24.2976C80.6367 24.3303 79.6677 24.3194 78.625 24.3194Z" fill="#616161" />
                <path fill-rule="evenodd" clip-rule="evenodd" d="M27.8122 10.527C27.7806 12.0511 27.5279 13.5207 27.0223 14.9359C26.9696 15.0883 26.8643 15.2189 26.759 15.3495C26.5273 15.6652 26.2745 15.6979 26.0954 15.3495C25.8637 14.8923 25.6741 14.4025 25.5583 13.9126C25.2212 12.3777 24.9052 10.8318 24.6209 9.27514C24.2522 7.29389 23.9257 5.30175 23.5887 3.32049C23.536 3.03745 23.5149 2.74353 23.4939 2.46049C23.4728 2.13391 23.6519 1.97062 23.9257 2.07948C24.1996 2.17746 24.4734 2.34075 24.6735 2.54758C26.3482 4.38732 27.4015 6.53187 27.6858 9.05742C27.749 9.54729 27.7701 10.0372 27.8122 10.527Z" fill="#F78223" />
            </g>
            <defs>
                <clipPath id="clip0_473_3827">
                    <rect width="88" height="32" fill="white" />
                </clipPath>
            </defs>
        </svg>