        <svg width="88" height="32" viewBox="0 0 88 32" fill="none" xmlns="http://www.w3.org/2000/svg">
            <path fill-rule="evenodd" clip-rule="evenodd" d="M10.5729 4H3.71996C3.25095 4 2.8521 4.35753 2.77885 4.84347L0.00716892 23.2821C-0.0478436 23.6461 0.220764 23.9739 0.572451 23.9739H3.84401C4.31302 23.9739 4.71187 23.6166 4.78512 23.1298L5.53256 18.1565C5.6047 17.6696 6.00438 17.3121 6.47255 17.3121H8.6419C13.156 17.3121 15.7613 15.0199 16.4419 10.478C16.7484 8.49067 16.4548 6.92948 15.5679 5.83597C14.5939 4.63526 12.8664 4 10.5729 4ZM11.3636 10.7345C10.9889 13.3147 9.11007 13.3147 7.29353 13.3147H6.25924L6.98479 8.49593C7.02801 8.20466 7.26827 7.99026 7.54895 7.99026H8.02301C9.26051 7.99026 10.4278 7.99026 11.031 8.73036C11.3908 9.17183 11.5009 9.82799 11.3636 10.7345Z" fill="#28356A" />
            <path fill-rule="evenodd" clip-rule="evenodd" d="M31.2325 10.5115H27.9508C27.6713 10.5115 27.4296 10.7259 27.3867 11.0171L27.2413 11.9802L27.012 11.6312C26.3016 10.5492 24.7172 10.1875 23.1361 10.1875C19.5095 10.1875 16.4122 13.0696 15.8091 17.1123C15.4956 19.1288 15.9413 21.0572 17.0317 22.402C18.0317 23.6383 19.4626 24.1537 21.1649 24.1537C24.0871 24.1537 25.7071 22.1823 25.7071 22.1823L25.5609 23.1391C25.5059 23.5049 25.7745 23.833 26.1242 23.833H29.08C29.5501 23.833 29.947 23.4755 30.0211 22.9886L31.7947 11.2033C31.8508 10.8404 31.5831 10.5115 31.2325 10.5115ZM26.6567 17.2133C26.3401 19.1803 24.8523 20.5009 22.9543 20.5009C22.0014 20.5009 21.24 20.1801 20.7508 19.5726C20.2657 18.9691 20.0816 18.11 20.2357 17.1532C20.5315 15.2029 22.0444 13.8391 23.9134 13.8391C24.8453 13.8391 25.6028 14.1642 26.1018 14.7768C26.6017 15.3961 26.8002 16.2605 26.6567 17.2133Z" fill="#28356A" />
            <path fill-rule="evenodd" clip-rule="evenodd" d="M48.454 10.8066H45.156C44.8414 10.8066 44.5458 10.9707 44.3676 11.2452L39.8192 18.2748L37.8913 11.5194C37.77 11.0967 37.3984 10.8066 36.9774 10.8066H33.737C33.3429 10.8066 33.0695 11.2104 33.1947 11.5995L36.8272 22.7843L33.4123 27.8428C33.1436 28.2413 33.4142 28.7891 33.8782 28.7891H37.1719C37.4846 28.7891 37.777 28.6291 37.9544 28.3603L48.9227 11.7476C49.1854 11.3503 48.9157 10.8066 48.454 10.8066Z" fill="#28356A" />
            <path fill-rule="evenodd" clip-rule="evenodd" d="M59.4399 4H52.586C52.1181 4 51.7193 4.35753 51.646 4.84347L48.8744 23.2821C48.8193 23.6461 49.088 23.9739 49.4377 23.9739H52.9548C53.2813 23.9739 53.5608 23.7239 53.6119 23.3831L54.3986 18.1565C54.4708 17.6696 54.8707 17.3121 55.3386 17.3121H57.5071C62.0221 17.3121 64.6265 15.0199 65.308 10.478C65.6156 8.49067 65.32 6.92948 64.4331 5.83597C63.46 4.63526 61.7335 4 59.4399 4ZM60.2297 10.7345C59.8558 13.3147 57.977 13.3147 56.1593 13.3147H55.1264L55.8528 8.49593C55.8958 8.20466 56.1343 7.99026 56.4159 7.99026H56.8899C58.1263 7.99026 59.2948 7.99026 59.8979 8.73036C60.2578 9.17183 60.3669 9.82799 60.2297 10.7345Z" fill="#298FC2" />
            <path fill-rule="evenodd" clip-rule="evenodd" d="M80.1109 10.5115H76.8312C76.5497 10.5115 76.3103 10.7259 76.2682 11.0171L76.1228 11.9802L75.8923 11.6312C75.182 10.5492 73.5987 10.1875 72.0173 10.1875C68.391 10.1875 65.2949 13.0696 64.6917 17.1123C64.379 19.1288 64.8228 21.0572 65.9129 22.402C66.9152 23.6383 68.3438 24.1537 70.0464 24.1537C72.9683 24.1537 74.5886 22.1823 74.5886 22.1823L74.4424 23.1391C74.3874 23.5049 74.6557 23.833 75.0077 23.833H77.9626C78.4305 23.833 78.8293 23.4755 78.9026 22.9886L80.677 11.2033C80.7312 10.8404 80.4626 10.5115 80.1109 10.5115ZM75.5391 17.2133C75.2244 19.1803 73.7343 20.5009 71.8364 20.5009C70.8855 20.5009 70.122 20.1802 69.6328 19.5726C69.1481 18.9691 68.9656 18.1101 69.1178 17.1532C69.4156 15.203 70.9264 13.8391 72.7955 13.8391C73.7273 13.8391 74.4848 14.1642 74.9839 14.7768C75.4857 15.3962 75.6842 16.2606 75.5391 17.2133Z" fill="#298FC2" />
            <path fill-rule="evenodd" clip-rule="evenodd" d="M83.7026 4.50685L80.89 23.283C80.835 23.647 81.1033 23.9748 81.453 23.9748H84.2808C84.751 23.9748 85.1495 23.6175 85.2217 23.1307L87.9953 4.69298C88.0506 4.32897 87.782 4 87.4323 4H84.266C83.9864 4.00088 83.7459 4.21558 83.7026 4.50685Z" fill="#298FC2" />
        </svg>