        <svg width="88" height="32" viewBox="0 0 88 32" fill="none" xmlns="http://www.w3.org/2000/svg">
            <path fill-rule="evenodd" clip-rule="evenodd" d="M26.425 26.821H20.3931L15.87 8.97829C15.6553 8.15752 15.1995 7.43192 14.5289 7.08993C12.8556 6.23051 11.0116 5.54653 9 5.20157V4.51463H18.7168C20.0579 4.51463 21.0637 5.54653 21.2313 6.74497L23.5782 19.6155L29.6071 4.51463H35.4713L26.425 26.821ZM38.8253 26.821H33.1287L37.8195 4.51463H43.5161L38.8253 26.821ZM50.8865 10.694C51.0541 9.49259 52.0599 8.80565 53.2333 8.80565C55.0773 8.63317 57.0859 8.97813 58.7623 9.83458L59.7681 5.03191C58.0917 4.34496 56.2478 4 54.5744 4C49.0454 4 45.0223 7.08977 45.0223 11.378C45.0223 14.6402 47.872 16.3531 49.8836 17.385C52.0599 18.414 52.8981 19.1009 52.7304 20.1298C52.7304 21.6732 51.0541 22.3602 49.3807 22.3602C47.3691 22.3602 45.3575 21.8457 43.5165 20.9863L42.5107 25.7919C44.5223 26.6484 46.6986 26.9934 48.7102 26.9934C54.9096 27.1629 58.7623 24.0761 58.7623 19.4429C58.7623 13.6083 50.8865 13.2663 50.8865 10.694ZM78.7007 26.821L74.1775 4.51463H69.3191C68.3133 4.51463 67.3075 5.20157 66.9723 6.23051L58.5965 26.821H64.4607L65.6312 23.5618H72.8365L73.507 26.821H78.7007ZM70.1528 10.5217L71.8262 18.9286H67.1354L70.1528 10.5217Z" fill="#172B85" />
        </svg>