        <svg width="16" height="16" viewBox="0 0 16 16" fill="none" xmlns="http://www.w3.org/2000/svg">
            <path d="M11.3336 5.33337H4.66697C4.54018 5.33332 4.41599 5.36942 4.30899 5.43745C4.20199 5.50548 4.1166 5.60261 4.06286 5.71745C4.00911 5.83229 3.98923 5.96008 4.00554 6.08583C4.02186 6.21157 4.0737 6.33005 4.15497 6.42737L7.48831 10.4274C7.55087 10.5024 7.62916 10.5628 7.71764 10.6042C7.80612 10.6456 7.90261 10.6671 8.00031 10.6671C8.098 10.6671 8.1945 10.6456 8.28297 10.6042C8.37145 10.5628 8.44974 10.5024 8.51231 10.4274L11.8456 6.42737C11.9269 6.33005 11.9788 6.21157 11.9951 6.08583C12.0114 5.96008 11.9915 5.83229 11.9378 5.71745C11.884 5.60261 11.7986 5.50548 11.6916 5.43745C11.5846 5.36942 11.4604 5.33332 11.3336 5.33337ZM8.00031 8.95871L6.09031 6.66671H9.91031L8.00031 8.95871Z" fill="#303030" />
        </svg>