        <svg width="16" height="16" viewBox="0 0 16 16" fill="none" xmlns="http://www.w3.org/2000/svg">
            <path d="M8.51231 5.57266C8.44761 5.50105 8.36862 5.44381 8.28043 5.40463C8.19224 5.36546 8.09681 5.34521 8.00031 5.34521C7.9038 5.34521 7.80837 5.36546 7.72018 5.40463C7.63199 5.44381 7.553 5.50105 7.48831 5.57266L4.15497 9.57266C4.0737 9.66998 4.02186 9.78847 4.00554 9.91421C3.98923 10.04 4.00911 10.1677 4.06286 10.2826C4.1166 10.3974 4.20199 10.4946 4.30899 10.5626C4.41599 10.6306 4.54018 10.6667 4.66697 10.6667H11.3336C11.4604 10.6667 11.5846 10.6306 11.6916 10.5626C11.7986 10.4946 11.884 10.3974 11.9378 10.2826C11.9915 10.1677 12.0114 10.04 11.9951 9.91421C11.9788 9.78847 11.9269 9.66998 11.8456 9.57266L8.51231 5.57266ZM6.09031 9.33333L8.00031 7.04199L9.91031 9.33333H6.09031Z" fill="#303030"/>
        </svg>