<svg width="24" height="24" viewBox="0 0 24 24" fill="none" xmlns="http://www.w3.org/2000/svg">
<path d="M4.29634 18.293L10.5893 12L4.29634 5.70702C4.11418 5.51842 4.01338 5.26582 4.01566 5.00362C4.01794 4.74142 4.12311 4.49061 4.30852 4.3052C4.49393 4.11979 4.74474 4.01462 5.00694 4.01235C5.26913 4.01007 5.52173 4.11086 5.71034 4.29302L12.0033 10.586L18.2963 4.29302C18.3886 4.19751 18.4989 4.12133 18.6209 4.06892C18.7429 4.01651 18.8742 3.98892 19.0069 3.98777C19.1397 3.98662 19.2714 4.01192 19.3943 4.0622C19.5172 4.11248 19.6288 4.18673 19.7227 4.28062C19.8166 4.37452 19.8909 4.48617 19.9412 4.60907C19.9914 4.73196 20.0167 4.86364 20.0156 4.99642C20.0144 5.1292 19.9868 5.26042 19.9344 5.38242C19.882 5.50443 19.8058 5.61477 19.7103 5.70702L13.4173 12L19.7103 18.293C19.8058 18.3853 19.882 18.4956 19.9344 18.6176C19.9868 18.7396 20.0144 18.8708 20.0156 19.0036C20.0167 19.1364 19.9914 19.2681 19.9412 19.391C19.8909 19.5139 19.8166 19.6255 19.7227 19.7194C19.6288 19.8133 19.5172 19.8876 19.3943 19.9378C19.2714 19.9881 19.1397 20.0134 19.0069 20.0123C18.8742 20.0111 18.7429 19.9835 18.6209 19.9311C18.4989 19.8787 18.3886 19.8025 18.2963 19.707L12.0033 13.414L5.71034 19.707C5.52173 19.8892 5.26913 19.99 5.00694 19.9877C4.74474 19.9854 4.49393 19.8802 4.30852 19.6948C4.12311 19.5094 4.01794 19.2586 4.01566 18.9964C4.01338 18.7342 4.11418 18.4816 4.29634 18.293Z" fill="#303030"/>
</svg>
