<svg width="24" height="24" viewBox="0 0 24 24" fill="none" xmlns="http://www.w3.org/2000/svg">
<path d="M4.29634 18.293L10.5893 12L4.29634 5.70696C4.11418 5.51836 4.01338 5.26575 4.01566 5.00356C4.01794 4.74136 4.12311 4.49055 4.30852 4.30514C4.49393 4.11973 4.74474 4.01456 5.00694 4.01228C5.26913 4.01001 5.52173 4.1108 5.71034 4.29296L12.0033 10.586L18.2963 4.29296C18.3886 4.19745 18.4989 4.12127 18.6209 4.06886C18.7429 4.01645 18.8742 3.98886 19.0069 3.98771C19.1397 3.98655 19.2714 4.01186 19.3943 4.06214C19.5172 4.11242 19.6288 4.18667 19.7227 4.28056C19.8166 4.37446 19.8909 4.48611 19.9412 4.60901C19.9914 4.7319 20.0167 4.86358 20.0156 4.99636C20.0144 5.12914 19.9868 5.26036 19.9344 5.38236C19.882 5.50437 19.8058 5.61471 19.7103 5.70696L13.4173 12L19.7103 18.293C19.8058 18.3852 19.882 18.4956 19.9344 18.6176C19.9868 18.7396 20.0144 18.8708 20.0156 19.0036C20.0167 19.1363 19.9914 19.268 19.9412 19.3909C19.8909 19.5138 19.8166 19.6255 19.7227 19.7194C19.6288 19.8132 19.5172 19.8875 19.3943 19.9378C19.2714 19.9881 19.1397 20.0134 19.0069 20.0122C18.8742 20.0111 18.7429 19.9835 18.6209 19.9311C18.4989 19.8787 18.3886 19.8025 18.2963 19.707L12.0033 13.414L5.71034 19.707C5.52173 19.8891 5.26913 19.9899 5.00694 19.9876C4.74474 19.9854 4.49393 19.8802 4.30852 19.6948C4.12311 19.5094 4.01794 19.2586 4.01566 18.9964C4.01338 18.7342 4.11418 18.4816 4.29634 18.293Z" fill="#FBFBFB" />
</svg>