        <svg width="16" height="16" viewBox="0 0 16 16" fill="none" xmlns="http://www.w3.org/2000/svg">
            <path d="M14.6641 3.33329H11.3307V1.33329C11.3307 1.15648 11.2605 0.986912 11.1355 0.861888C11.0104 0.736864 10.8409 0.666626 10.6641 0.666626H5.33073C5.15392 0.666626 4.98435 0.736864 4.85932 0.861888C4.7343 0.986912 4.66406 1.15648 4.66406 1.33329V3.33329H1.33073C1.15392 3.33329 0.984349 3.40353 0.859325 3.52855C0.7343 3.65358 0.664063 3.82315 0.664062 3.99996C0.664063 4.17677 0.7343 4.34634 0.859325 4.47136C0.984349 4.59639 1.15392 4.66663 1.33073 4.66663H2.03806L2.66406 14.7086C2.67476 14.8781 2.74969 15.037 2.87357 15.1531C2.99746 15.2692 3.16096 15.3336 3.33073 15.3333H12.6641C12.8338 15.3336 12.9973 15.2692 13.1212 15.1531C13.2451 15.037 13.32 14.8781 13.3307 14.7086L13.9567 4.66663H14.6641C14.8409 4.66663 15.0104 4.59639 15.1355 4.47136C15.2605 4.34634 15.3307 4.17677 15.3307 3.99996C15.3307 3.82315 15.2605 3.65358 15.1355 3.52855C15.0104 3.40353 14.8409 3.33329 14.6641 3.33329ZM5.9974 1.99996H9.9974V3.33329H5.9974V1.99996ZM12.0381 14H3.95673L3.3734 4.66663H12.6214L12.0381 14ZM5.9974 7.33329V11.3333C5.9974 11.5101 5.92716 11.6797 5.80213 11.8047C5.67711 11.9297 5.50754 12 5.33073 12C5.15392 12 4.98435 11.9297 4.85932 11.8047C4.7343 11.6797 4.66406 11.5101 4.66406 11.3333V7.33329C4.66406 7.15648 4.7343 6.98691 4.85932 6.86189C4.98435 6.73686 5.15392 6.66663 5.33073 6.66663C5.50754 6.66663 5.67711 6.73686 5.80213 6.86189C5.92716 6.98691 5.9974 7.15648 5.9974 7.33329ZM8.66406 7.33329V11.3333C8.66406 11.5101 8.59382 11.6797 8.4688 11.8047C8.34378 11.9297 8.17421 12 7.9974 12C7.82059 12 7.65102 11.9297 7.52599 11.8047C7.40097 11.6797 7.33073 11.5101 7.33073 11.3333V7.33329C7.33073 7.15648 7.40097 6.98691 7.52599 6.86189C7.65102 6.73686 7.82059 6.66663 7.9974 6.66663C8.17421 6.66663 8.34378 6.73686 8.4688 6.86189C8.59382 6.98691 8.66406 7.15648 8.66406 7.33329ZM10.6641 6.66663C10.8409 6.66663 11.0104 6.73686 11.1355 6.86189C11.2605 6.98691 11.3307 7.15648 11.3307 7.33329V11.3333C11.3307 11.5101 11.2605 11.6797 11.1355 11.8047C11.0104 11.9297 10.8409 12 10.6641 12C10.4873 12 10.3177 11.9297 10.1927 11.8047C10.0676 11.6797 9.9974 11.5101 9.9974 11.3333V7.33329C9.9974 7.15648 10.0676 6.98691 10.1927 6.86189C10.3177 6.73686 10.4873 6.66663 10.6641 6.66663Z" fill="#303030" />
        </svg>