        <svg width="32" height="32" viewBox="0 0 32 32" fill="none" xmlns="http://www.w3.org/2000/svg">
            <path d="M23.4683 18.0286L17.5048 24.0033C17.1094 24.3992 16.5733 24.6216 16.0142 24.6216C15.4551 24.6216 14.919 24.3992 14.5236 24.0033L8.56016 18.0296C8.06719 17.5401 7.67561 16.9579 7.40787 16.3164C7.14014 15.6749 7.00153 14.9867 7.00001 14.2914C6.99849 13.5961 7.13409 12.9074 7.39901 12.2647C7.66394 11.622 8.05298 11.0381 8.5438 10.5464C9.03462 10.0548 9.61755 9.66508 10.2591 9.3997C10.9007 9.13432 11.5883 8.99849 12.2824 9.00001C12.9765 9.00154 13.6635 9.14038 14.3039 9.40857C14.9443 9.67676 15.5255 10.069 16.0142 10.5628C17.0068 9.5933 18.3407 9.05454 19.727 9.06324C21.1134 9.07194 22.4404 9.62741 23.4208 10.6093C24.4012 11.5912 24.9559 12.9205 24.9648 14.3092C24.9736 15.6979 24.436 17.0342 23.4683 18.0286Z" stroke="#FBFBFB" stroke-width="1.5" stroke-linecap="round" stroke-linejoin="round" />
        </svg>