<svg aria-hidden="true" style="position: absolute; width: 0; height: 0; overflow: hidden;" version="1.1" xmlns="http://www.w3.org/2000/svg" xmlns:xlink="http://www.w3.org/1999/xlink">
<defs>
<symbol id="mastercard" viewBox="0 0 40 32">
<path fill="#d2d2d2" fill-rule="evenodd" clip-rule="evenodd" style="fill: var(--color1, #d2d2d2)" d="M11.306 27.909v3.312h-0.714v-0.402c-0.226 0.298-0.57 0.485-1.037 0.485-0.92 0-1.642-0.727-1.642-1.739s0.721-1.739 1.642-1.739c0.467 0 0.81 0.187 1.037 0.485v-0.402h0.714zM9.644 28.504c-0.618 0-0.996 0.478-0.996 1.060s0.378 1.060 0.996 1.060c0.59 0 0.989-0.458 0.989-1.060s-0.399-1.060-0.989-1.060zM35.422 29.565c0-0.582 0.378-1.060 0.996-1.060 0.591 0 0.989 0.458 0.989 1.060s-0.398 1.060-0.989 1.060c-0.618 0-0.996-0.478-0.996-1.060zM38.080 26.579v4.642h-0.714v-0.402c-0.226 0.298-0.57 0.485-1.037 0.485-0.92 0-1.642-0.727-1.642-1.739s0.721-1.739 1.642-1.739c0.467 0 0.81 0.187 1.037 0.485v-1.732h0.714zM20.169 28.47c0.46 0 0.755 0.291 0.831 0.803h-1.703c0.076-0.478 0.364-0.803 0.872-0.803zM18.547 29.565c0-1.033 0.673-1.739 1.635-1.739 0.919 0 1.551 0.707 1.558 1.739 0 0.097-0.007 0.187-0.014 0.277h-2.437c0.103 0.596 0.522 0.811 0.982 0.811 0.329 0 0.68-0.125 0.955-0.346l0.35 0.534c-0.398 0.339-0.851 0.464-1.346 0.464-0.982 0-1.683-0.686-1.683-1.739zM28.797 29.565c0-0.582 0.378-1.060 0.996-1.060 0.59 0 0.989 0.458 0.989 1.060s-0.398 1.060-0.989 1.060c-0.618 0-0.996-0.478-0.996-1.060zM31.455 27.909v3.312h-0.714v-0.402c-0.227 0.298-0.57 0.485-1.037 0.485-0.92 0-1.642-0.727-1.642-1.739s0.721-1.739 1.642-1.739c0.467 0 0.809 0.187 1.037 0.485v-0.402h0.714zM24.766 29.565c0 1.005 0.693 1.739 1.751 1.739 0.494 0 0.824-0.111 1.18-0.395l-0.343-0.582c-0.268 0.194-0.549 0.298-0.859 0.298-0.57-0.007-0.989-0.423-0.989-1.060s0.419-1.053 0.989-1.060c0.31 0 0.591 0.104 0.859 0.298l0.343-0.582c-0.357-0.284-0.686-0.395-1.18-0.395-1.058 0-1.751 0.734-1.751 1.739zM33.106 28.311c0.185-0.291 0.453-0.485 0.865-0.485 0.145 0 0.35 0.028 0.508 0.090l-0.22 0.679c-0.151-0.063-0.302-0.083-0.446-0.083-0.467 0-0.7 0.305-0.7 0.853v1.857h-0.714v-3.312h0.707v0.402zM14.836 28.172c-0.343-0.228-0.817-0.347-1.338-0.347-0.832 0-1.367 0.402-1.367 1.060 0 0.54 0.398 0.873 1.133 0.977l0.337 0.048c0.391 0.055 0.576 0.159 0.576 0.347 0 0.256-0.261 0.402-0.748 0.402-0.494 0-0.851-0.159-1.092-0.347l-0.336 0.561c0.391 0.291 0.886 0.43 1.421 0.43 0.948 0 1.497-0.451 1.497-1.081 0-0.582-0.432-0.887-1.147-0.991l-0.336-0.049c-0.309-0.041-0.556-0.103-0.556-0.325 0-0.243 0.233-0.388 0.625-0.388 0.419 0 0.824 0.159 1.023 0.284l0.309-0.582zM23.184 28.311c0.185-0.291 0.453-0.485 0.864-0.485 0.145 0 0.351 0.028 0.509 0.090l-0.22 0.679c-0.151-0.063-0.302-0.083-0.446-0.083-0.467 0-0.7 0.305-0.7 0.853v1.857h-0.714v-3.312h0.707v0.402zM17.953 27.909h-1.167v-1.005h-0.721v1.005h-0.666v0.658h0.666v1.511c0 0.768 0.296 1.226 1.14 1.226 0.31 0 0.666-0.097 0.893-0.256l-0.206-0.617c-0.213 0.125-0.446 0.187-0.632 0.187-0.357 0-0.473-0.222-0.473-0.554v-1.497h1.167v-0.658zM7.283 29.142v2.079h-0.721v-1.843c0-0.561-0.233-0.873-0.721-0.873-0.474 0-0.803 0.305-0.803 0.88v1.836h-0.721v-1.843c0-0.561-0.24-0.873-0.714-0.873-0.488 0-0.804 0.305-0.804 0.88v1.836h-0.721v-3.312h0.714v0.408c0.268-0.388 0.611-0.492 0.961-0.492 0.501 0 0.858 0.222 1.085 0.589 0.303-0.465 0.735-0.596 1.154-0.589 0.797 0.007 1.291 0.534 1.291 1.317z"></path>
<path fill="#ff5f00" style="fill: var(--color2, #ff5f00)" d="M25.41 22.281h-10.816v-19.614h10.816v19.614z"></path>
<path fill="#ec0000" style="fill: var(--color3, #ec0000)" d="M15.278 12.474c0-3.979 1.846-7.523 4.721-9.807-2.102-1.67-4.756-2.667-7.639-2.667-6.827 0-12.36 5.585-12.36 12.474s5.534 12.474 12.36 12.474c2.884 0 5.537-0.997 7.639-2.667-2.875-2.284-4.721-5.828-4.721-9.807z"></path>
<path fill="#f79e1b" style="fill: var(--color4, #f79e1b)" d="M40 12.474c0 6.89-5.534 12.474-12.36 12.474-2.884 0-5.537-0.997-7.64-2.667 2.876-2.284 4.722-5.828 4.722-9.807s-1.846-7.523-4.722-9.807c2.103-1.67 4.756-2.667 7.64-2.667 6.827 0 12.36 5.585 12.36 12.474z"></path>
</symbol>
<symbol id="visa" viewBox="0 0 99 32">
<path fill="#172b85" style="fill: var(--color1, #172b85)" d="M25.167 31.751h-8.392l-6.293-24.825c-0.299-1.142-0.933-2.151-1.866-2.627-2.328-1.196-4.894-2.147-7.692-2.627v-0.956h13.519c1.866 0 3.265 1.436 3.498 3.103l3.265 17.907 8.388-21.010h8.159l-12.586 31.035zM42.42 31.751h-7.926l6.526-31.035h7.926l-6.526 31.035zM59.201 9.313c0.233-1.672 1.633-2.627 3.265-2.627 2.565-0.24 5.36 0.24 7.692 1.432l1.399-6.682c-2.332-0.956-4.898-1.436-7.226-1.436-7.692 0-13.29 4.299-13.29 10.265 0 4.539 3.965 6.922 6.764 8.358 3.028 1.432 4.194 2.387 3.961 3.819 0 2.147-2.332 3.103-4.66 3.103-2.799 0-5.598-0.716-8.159-1.912l-1.399 6.686c2.799 1.192 5.827 1.672 8.625 1.672 8.625 0.236 13.986-4.059 13.986-10.505 0-8.118-10.958-8.594-10.958-12.172zM97.899 31.751l-6.293-31.035h-6.76c-1.399 0-2.799 0.956-3.265 2.387l-11.653 28.648h8.159l1.629-4.535h10.025l0.933 4.535h7.226zM86.006 9.074l2.328 11.697h-6.526l4.198-11.697z"></path>
</symbol>
<symbol id="paypal" viewBox="0 0 114 32">
<path fill="#28356a" style="fill: var(--color1, #28356a)" d="M13.963 0h-8.772c-0.6 0-1.111 0.458-1.205 1.080l-3.548 23.601c-0.070 0.466 0.273 0.886 0.724 0.886h4.188c0.6 0 1.111-0.457 1.205-1.080l0.957-6.366c0.092-0.623 0.604-1.081 1.203-1.081h2.777c5.778 0 9.113-2.934 9.984-8.748 0.392-2.544 0.017-4.542-1.119-5.942-1.247-1.537-3.458-2.35-6.393-2.35zM14.976 8.62c-0.48 3.303-2.885 3.303-5.21 3.303h-1.324l0.929-6.168c0.055-0.373 0.363-0.647 0.722-0.647h0.607c1.584 0 3.078 0 3.85 0.947 0.461 0.565 0.601 1.405 0.426 2.565z"></path>
<path fill="#28356a" style="fill: var(--color1, #28356a)" d="M40.408 8.335h-4.2c-0.358 0-0.667 0.274-0.722 0.647l-0.186 1.233-0.294-0.447c-0.909-1.385-2.937-1.848-4.961-1.848-4.642 0-8.607 3.689-9.379 8.864-0.401 2.581 0.169 5.049 1.565 6.771 1.28 1.582 3.112 2.242 5.291 2.242 3.74 0 5.814-2.523 5.814-2.523l-0.187 1.225c-0.070 0.468 0.273 0.888 0.721 0.888h3.783c0.602 0 1.11-0.458 1.205-1.081l2.27-15.085c0.072-0.464-0.271-0.886-0.72-0.886zM34.551 16.914c-0.405 2.518-2.31 4.208-4.739 4.208-1.22 0-2.194-0.411-2.821-1.188-0.621-0.772-0.856-1.872-0.659-3.097 0.379-2.496 2.315-4.242 4.708-4.242 1.193 0 2.162 0.416 2.801 1.2 0.64 0.793 0.894 1.899 0.71 3.119z"></path>
<path fill="#28356a" style="fill: var(--color1, #28356a)" d="M62.451 8.713h-4.221c-0.403 0-0.781 0.21-1.009 0.561l-5.822 8.998-2.468-8.647c-0.155-0.541-0.631-0.912-1.17-0.912h-4.148c-0.504 0-0.854 0.517-0.694 1.015l4.65 14.317-4.371 6.475c-0.344 0.51 0.003 1.211 0.596 1.211h4.216c0.4 0 0.775-0.205 1.002-0.549l14.039-21.264c0.336-0.509-0.009-1.204-0.6-1.204z"></path>
<path fill="#298fc2" style="fill: var(--color2, #298fc2)" d="M76.513 0h-8.773c-0.599 0-1.109 0.458-1.203 1.080l-3.548 23.601c-0.070 0.466 0.273 0.886 0.721 0.886h4.502c0.418 0 0.776-0.32 0.841-0.756l1.007-6.69c0.092-0.623 0.604-1.081 1.203-1.081h2.776c5.779 0 9.113-2.934 9.985-8.748 0.394-2.544 0.016-4.542-1.12-5.942-1.246-1.537-3.455-2.35-6.391-2.35zM77.524 8.62c-0.478 3.303-2.883 3.303-5.21 3.303h-1.322l0.93-6.168c0.055-0.373 0.36-0.647 0.721-0.647h0.607c1.582 0 3.078 0 3.85 0.947 0.461 0.565 0.6 1.405 0.425 2.565z"></path>
<path fill="#298fc2" style="fill: var(--color2, #298fc2)" d="M102.972 8.335h-4.198c-0.36 0-0.667 0.274-0.721 0.647l-0.186 1.233-0.295-0.447c-0.909-1.385-2.936-1.848-4.96-1.848-4.642 0-8.605 3.689-9.377 8.864-0.4 2.581 0.168 5.050 1.563 6.771 1.283 1.582 3.112 2.242 5.291 2.242 3.74 0 5.814-2.523 5.814-2.523l-0.187 1.225c-0.070 0.468 0.273 0.888 0.724 0.888h3.782c0.599 0 1.109-0.458 1.203-1.081l2.271-15.085c0.069-0.464-0.275-0.886-0.725-0.886zM97.12 16.914c-0.403 2.518-2.31 4.208-4.739 4.208-1.217 0-2.194-0.41-2.821-1.188-0.62-0.772-0.854-1.872-0.659-3.097 0.381-2.496 2.315-4.242 4.707-4.242 1.193 0 2.162 0.416 2.801 1.2 0.642 0.793 0.896 1.899 0.711 3.119z"></path>
<path fill="#298fc2" style="fill: var(--color2, #298fc2)" d="M107.569 0.649l-3.6 24.033c-0.070 0.466 0.273 0.886 0.721 0.886h3.62c0.602 0 1.112-0.457 1.204-1.080l3.55-23.6c0.071-0.466-0.273-0.887-0.721-0.887h-4.053c-0.358 0.001-0.666 0.276-0.721 0.649z"></path>
</symbol>
<symbol id="payoneer" viewBox="0 0 87 32">
<path fill="#f78223" style="fill: var(--color1, #f78223)" d="M50.815 0c0.284 0.065 0.569 0.163 0.853 0.207 1.18 0.196 2.128 0.849 2.939 1.709 0.2 0.207 0.4 0.62 0.316 0.838-0.095 0.24-0.474 0.468-0.758 0.512-2.654 0.403-5.235 1.121-7.71 2.177-1.432 0.61-2.833 1.35-4.203 2.101-2.981 1.655-5.403 4.039-7.773 6.488-2.507 2.591-4.845 5.334-6.888 8.328-1.274 1.861-2.465 3.788-3.602 5.748-0.569 0.98-0.937 2.079-1.401 3.124-0.074 0.152-0.232 0.424-0.284 0.403-0.2-0.065-0.495-0.185-0.548-0.348-0.126-0.403-0.253-0.871-0.179-1.274 0.4-2.188 1.285-4.202 2.264-6.172 1.906-3.81 4.297-7.283 7.088-10.44 1.59-1.796 3.234-3.549 4.929-5.225 2.549-2.536 5.393-4.681 8.563-6.336 1.464-0.762 2.981-1.339 4.592-1.655 0.274-0.054 0.537-0.12 0.8-0.174 0.347-0.011 0.674-0.011 1.001-0.011z"></path>
<path fill="#d2d2d2" style="fill: var(--color2, #d2d2d2)" d="M0 24.319c0.147-0.816 0.263-1.568 0.411-2.319 0.758-4.126 1.527-8.241 2.286-12.367 0.053-0.261 0.126-0.435 0.379-0.479 1.97-0.305 3.95-0.523 5.919-0.011 1.717 0.435 2.918 1.687 3.118 3.157 0.411 2.928-1.243 5.269-3.697 6.107-1.296 0.435-2.612 0.544-3.95 0.414-0.316-0.033-0.411 0.054-0.463 0.37-0.284 1.6-0.579 3.19-0.885 4.779-0.021 0.131-0.137 0.337-0.211 0.337-0.958 0.022-1.896 0.011-2.907 0.011zM4.534 16.231c0.643 0 1.222 0.055 1.78-0.011 1.095-0.12 1.97-0.631 2.465-1.709 0.558-1.219 0.158-2.515-0.895-2.896-0.748-0.272-1.517-0.218-2.286-0.109-0.095 0.011-0.221 0.163-0.242 0.261-0.263 1.426-0.527 2.863-0.822 4.463z"></path>
<path fill="#d2d2d2" style="fill: var(--color2, #d2d2d2)" d="M18.674 22.229c-0.527 0.566-0.948 1.143-1.485 1.568-1.106 0.882-2.37 1.078-3.644 0.468-1.264-0.599-1.78-1.764-1.833-3.135-0.116-2.885 0.864-5.269 3.212-6.924 1.475-1.045 3.17-1.361 4.929-1.263 0.895 0.054 1.78 0.272 2.675 0.403 0.358 0.054 0.411 0.261 0.348 0.577-0.4 2.155-0.822 4.3-1.159 6.455-0.179 1.143-0.232 2.319-0.305 3.473-0.021 0.348-0.105 0.49-0.453 0.479-0.653-0.022-1.306-0.022-1.959 0-0.337 0.011-0.453-0.12-0.421-0.457 0.042-0.523 0.063-1.067 0.095-1.644zM19.411 15.502c-1.022-0.294-1.875-0.087-2.591 0.533-1.348 1.176-1.959 2.7-1.843 4.518 0.032 0.555 0.242 1.089 0.811 1.328s1.085 0.065 1.527-0.327c0.263-0.239 0.516-0.512 0.706-0.817 1.001-1.578 1.022-3.429 1.39-5.236z"></path>
<path fill="#d2d2d2" style="fill: var(--color2, #d2d2d2)" d="M39.293 24.581c-2.791 0-4.382-1.067-4.961-2.983-0.958-3.157 0.885-8.088 5.393-8.611 1.348-0.152 2.612 0.022 3.718 0.871 1.053 0.806 1.569 1.938 1.643 3.277 0.084 1.393-0.147 2.721-0.779 3.962-1.19 2.308-3.097 3.429-5.014 3.483zM37.335 19.834c0 0.163-0.011 0.337 0 0.501 0.084 1.143 0.874 1.872 1.917 1.774 0.579-0.054 1.032-0.37 1.39-0.827 0.937-1.23 1.295-2.645 1.169-4.18-0.105-1.252-1.022-1.916-2.138-1.655-0.548 0.131-0.958 0.479-1.285 0.936-0.727 1.034-1.022 2.199-1.053 3.451z"></path>
<path fill="#d2d2d2" style="fill: var(--color2, #d2d2d2)" d="M47.603 13.216c0.895 0 1.748 0 2.675 0-0.042 0.588-0.084 1.154-0.137 1.731 0.306-0.294 0.579-0.577 0.864-0.827 1.043-0.936 2.233-1.35 3.613-1.121 1.138 0.196 1.927 1.056 2.054 2.264 0.148 1.35-0.126 2.656-0.369 3.962-0.295 1.578-0.579 3.157-0.885 4.724-0.032 0.142-0.19 0.348-0.295 0.359-0.906 0.022-1.812 0.011-2.717 0-0.042 0-0.084-0.033-0.169-0.076 0.169-0.904 0.337-1.818 0.495-2.732 0.242-1.404 0.474-2.798 0.685-4.202 0.042-0.239 0.021-0.49-0.011-0.729-0.084-0.838-0.685-1.219-1.464-0.969-0.758 0.25-1.211 0.86-1.58 1.535-0.548 0.991-0.737 2.090-0.927 3.19-0.211 1.208-0.411 2.406-0.642 3.614-0.032 0.142-0.19 0.359-0.295 0.37-0.927 0.033-1.864 0.022-2.896 0.022 0.695-3.745 1.348-7.413 2.001-11.115z"></path>
<path fill="#d2d2d2" style="fill: var(--color2, #d2d2d2)" d="M60.993 19.965c-0.074 1.132 0.674 1.938 1.791 2.079 1.085 0.131 2.128-0.044 3.139-0.446 0.105-0.044 0.221-0.087 0.337-0.131 0.021-0.011 0.053 0 0.137 0 0.063 0.664 0.137 1.328 0.168 1.992 0.011 0.131-0.137 0.337-0.263 0.392-1.759 0.74-3.581 1.002-5.435 0.512-1.727-0.457-2.675-1.742-2.865-3.538-0.274-2.536 0.442-4.757 2.349-6.434 1.569-1.383 3.413-1.818 5.414-1.197 1.338 0.414 2.085 1.448 2.18 2.874 0.095 1.404-0.495 2.482-1.759 3.135-0.99 0.512-2.054 0.697-3.139 0.762-0.674 0.033-1.359 0-2.054 0zM61.297 17.603c0.811 0.174 2.475-0.033 3.118-0.381 0.442-0.239 0.663-0.62 0.59-1.078-0.074-0.468-0.379-0.697-0.8-0.806-1.253-0.316-2.739 0.817-2.907 2.264z"></path>
<path fill="#d2d2d2" style="fill: var(--color2, #d2d2d2)" d="M71.513 20.009c-0.095 1.067 0.642 1.883 1.769 2.036 1.053 0.131 2.064-0.033 3.054-0.403 0.169-0.065 0.327-0.131 0.548-0.218 0.063 0.708 0.147 1.372 0.179 2.036 0.010 0.131-0.137 0.337-0.253 0.392-1.79 0.762-3.634 1.023-5.519 0.49-1.696-0.479-2.581-1.753-2.791-3.494-0.263-2.232 0.295-4.246 1.801-5.9 1.622-1.774 3.613-2.406 5.909-1.753 1.401 0.403 2.149 1.448 2.233 2.918 0.084 1.437-0.548 2.515-1.864 3.146-1.327 0.631-2.739 0.729-4.171 0.762-0.284-0.011-0.579-0.011-0.895-0.011zM71.82 17.69c0.674-0.044 1.306-0.055 1.927-0.142 0.421-0.054 0.843-0.185 1.222-0.37 0.411-0.185 0.611-0.577 0.548-1.056-0.063-0.457-0.358-0.675-0.769-0.784-1.243-0.348-2.791 0.827-2.928 2.351z"></path>
<path fill="#d2d2d2" style="fill: var(--color2, #d2d2d2)" d="M78.625 24.319c0.137-0.806 0.263-1.535 0.4-2.275 0.548-2.82 1.106-5.639 1.338-8.524 0.010-0.12 0.168-0.316 0.253-0.327 0.8-0.022 1.601-0.011 2.465-0.011-0.063 0.773-0.116 1.502-0.168 2.221 0.969-1.47 2.085-2.667 4.087-2.449-0.2 1.034-0.369 1.992-0.569 2.939-0.021 0.076-0.158 0.174-0.242 0.185-2.075 0.283-2.949 1.045-3.465 3.244-0.358 1.524-0.6 3.092-0.906 4.637-0.021 0.131-0.137 0.337-0.211 0.337-0.969 0.033-1.938 0.022-2.981 0.022z"></path>
<path fill="#f78223" style="fill: var(--color1, #f78223)" d="M27.812 10.527c-0.032 1.524-0.284 2.994-0.79 4.409-0.053 0.152-0.158 0.283-0.263 0.414-0.232 0.316-0.485 0.348-0.664 0-0.232-0.457-0.421-0.947-0.537-1.437-0.337-1.535-0.653-3.081-0.937-4.637-0.369-1.981-0.695-3.973-1.032-5.955-0.053-0.283-0.074-0.577-0.095-0.86-0.021-0.327 0.158-0.49 0.432-0.381 0.274 0.098 0.548 0.261 0.748 0.468 1.675 1.84 2.728 3.984 3.012 6.51 0.063 0.49 0.084 0.98 0.126 1.47z"></path>
</symbol>
<symbol id="search" viewBox="0 0 32 32">
<path fill="#797777" style="fill: var(--color1, #797777)" d="M4.83 20c1.846 1.849 4.305 2.959 6.913 3.121s5.185-0.636 7.246-2.242l7.091 7.091c0.251 0.243 0.588 0.377 0.938 0.374s0.684-0.143 0.931-0.39c0.247-0.247 0.387-0.582 0.391-0.931s-0.131-0.686-0.374-0.938l-7.091-7.091c1.678-2.153 2.471-4.865 2.218-7.583s-1.533-5.237-3.58-7.043-4.705-2.764-7.433-2.678c-2.728 0.086-5.321 1.21-7.249 3.142-0.996 0.996-1.787 2.178-2.326 3.479s-0.817 2.696-0.817 4.105c0 1.409 0.278 2.803 0.817 4.105s1.33 2.484 2.326 3.479zM6.715 6.72c1.318-1.318 3.052-2.138 4.908-2.321s3.716 0.283 5.266 1.319c1.55 1.036 2.693 2.577 3.234 4.36s0.447 3.7-0.266 5.422c-0.713 1.722-2.002 3.144-3.645 4.023s-3.542 1.161-5.37 0.797-3.474-1.349-4.657-2.79c-1.183-1.441-1.829-3.247-1.83-5.111-0.004-1.059 0.203-2.109 0.608-3.087s1.001-1.867 1.752-2.614v0.003zM6.161 12.415c0-0.354 0.14-0.693 0.391-0.943s0.589-0.391 0.943-0.391c0.354 0 0.693 0.14 0.943 0.391s0.391 0.589 0.391 0.943c0.001 0.951 0.379 1.862 1.051 2.534s1.583 1.050 2.534 1.051c0.354 0 0.693 0.141 0.943 0.391s0.391 0.589 0.391 0.943c0 0.354-0.14 0.693-0.391 0.943s-0.589 0.391-0.943 0.391c-1.657-0.004-3.245-0.664-4.417-1.835s-1.832-2.76-1.835-4.416z"></path>
</symbol>
<symbol id="basket" viewBox="0 0 31 32">
<path d="M1.504 31.111h27c0.207 0.001 0.412-0.043 0.602-0.129s0.361-0.211 0.502-0.368 0.249-0.343 0.317-0.546c0.068-0.203 0.095-0.418 0.079-0.632l-1.5-20.222c-0.029-0.391-0.2-0.757-0.478-1.023s-0.643-0.414-1.022-0.412h-4.5c0-2.063-0.79-4.041-2.197-5.5s-3.314-2.278-5.303-2.278c-1.989 0-3.897 0.819-5.303 2.278s-2.197 3.437-2.197 5.5h-4.5c-0.379-0.001-0.744 0.146-1.022 0.412s-0.449 0.632-0.478 1.023l-1.5 20.222c-0.016 0.214 0.011 0.429 0.079 0.632s0.176 0.389 0.317 0.546c0.141 0.157 0.312 0.283 0.502 0.368s0.395 0.129 0.602 0.129zM15.004 3.111c1.193 0 2.338 0.492 3.182 1.367s1.318 2.062 1.318 3.3h-9c0-1.238 0.474-2.425 1.318-3.3s1.988-1.367 3.182-1.367zM4.393 10.889h3.111v3.111c0 0.413 0.158 0.808 0.439 1.1s0.663 0.456 1.061 0.456 0.779-0.164 1.061-0.456c0.281-0.292 0.439-0.687 0.439-1.1v-3.111h9v3.111c0 0.413 0.158 0.808 0.439 1.1s0.663 0.456 1.061 0.456c0.398 0 0.779-0.164 1.061-0.456s0.439-0.687 0.439-1.1v-3.111h3.111l1.269 17.111h-23.76l1.269-17.111z"></path>
</symbol>
<symbol id="user" viewBox="0 0 26 32">
<path d="M12.8 14.545c1.406 0 2.781-0.427 3.951-1.226s2.081-1.935 2.619-3.264 0.679-2.791 0.405-4.202c-0.274-1.411-0.952-2.707-1.946-3.724s-2.262-1.71-3.641-1.99c-1.379-0.281-2.809-0.137-4.109 0.414s-2.41 1.483-3.191 2.679c-0.781 1.196-1.198 2.602-1.198 4.040 0.002 1.928 0.752 3.777 2.085 5.14s3.141 2.13 5.026 2.133zM12.8 2.909c0.844 0 1.669 0.256 2.37 0.735s1.248 1.161 1.571 1.958c0.323 0.797 0.407 1.675 0.243 2.521s-0.571 1.624-1.168 2.234c-0.597 0.61-1.357 1.026-2.185 1.194s-1.686 0.082-2.465-0.248c-0.78-0.33-1.446-0.89-1.915-1.607s-0.719-1.561-0.719-2.424c0-1.157 0.45-2.267 1.25-3.086s1.885-1.278 3.017-1.278zM0 30.545v-5.818c0.002-1.928 0.752-3.777 2.085-5.14s3.141-2.13 5.026-2.133h11.378c1.885 0.002 3.693 0.769 5.026 2.133s2.083 3.212 2.085 5.14v5.818c0 0.386-0.15 0.756-0.416 1.029s-0.628 0.426-1.006 0.426-0.739-0.153-1.006-0.426c-0.267-0.273-0.416-0.643-0.416-1.029v-5.818c0-1.157-0.45-2.267-1.25-3.086s-1.885-1.278-3.017-1.278h-11.378c-1.132 0-2.217 0.46-3.017 1.278s-1.25 1.928-1.25 3.086v5.818c0 0.386-0.15 0.756-0.417 1.029s-0.628 0.426-1.006 0.426c-0.377 0-0.739-0.153-1.006-0.426s-0.417-0.643-0.417-1.029z"></path>
</symbol>
<symbol id="fav-heart" viewBox="0 0 35 32">
<path stroke="#303030" fill="none" stroke-linejoin="round" stroke-linecap="round" stroke-miterlimit="4" stroke-width="2.9091" d="M30.789 18.268l-10.622 11.126c-0.704 0.737-1.659 1.152-2.655 1.152s-1.951-0.414-2.655-1.152l-10.622-11.124c-0.878-0.912-1.576-1.996-2.053-3.19s-0.724-2.476-0.727-3.771c-0.003-1.295 0.239-2.577 0.711-3.774s1.165-2.284 2.039-3.2c0.874-0.916 1.913-1.641 3.055-2.135s2.368-0.747 3.604-0.744c1.236 0.003 2.46 0.261 3.601 0.761s2.176 1.23 3.046 2.149c1.768-1.805 4.144-2.809 6.614-2.793s4.833 1.051 6.579 2.879c1.746 1.829 2.734 4.304 2.75 6.89s-0.942 5.074-2.666 6.926z"></path>
</symbol>
<symbol id="nav-marker" viewBox="0 0 59 32">
<path d="M4.958 0l26.667 32 26.667-32h-53.333z"></path>
</symbol>
</defs>
</svg>
